<?xml version="1.0" standalone="no"?>
<!DOCTYPE svg PUBLIC "-//W3C//DTD SVG 20010904//EN"
 "http://www.w3.org/TR/2001/REC-SVG-20010904/DTD/svg10.dtd">
<svg version="1.0" xmlns="http://www.w3.org/2000/svg"
 width="100.000000pt" height="100.000000pt" viewBox="0 0 100.000000 100.000000"
 preserveAspectRatio="xMidYMid meet">

<g transform="translate(0.000000,100.000000) scale(0.100000,-0.100000)"
fill="#000000" stroke="none">
<path d="M185 733 c-46 -11 -56 -32 -54 -116 2 -84 -4 -97 -48 -97 -18 0 -23
-6 -23 -25 0 -18 5 -25 19 -25 47 0 51 -8 51 -95 0 -93 11 -112 74 -122 33 -5
36 -4 36 19 0 17 -8 27 -27 34 -27 9 -28 10 -24 87 2 48 -2 83 -9 92 -7 9 -8
15 0 20 5 3 10 42 10 90 0 80 1 83 25 89 18 5 25 13 25 31 0 25 -10 29 -55 18z"/>
<path d="M762 714 c2 -21 9 -30 26 -32 21 -3 22 -8 22 -87 0 -48 5 -87 10 -90
8 -5 7 -11 0 -20 -7 -9 -11 -44 -9 -92 4 -77 3 -78 -24 -87 -19 -7 -27 -17
-27 -34 0 -23 3 -24 36 -19 63 10 74 29 74 123 l0 83 35 7 c28 5 35 11 35 30
0 18 -5 24 -22 24 -45 0 -51 13 -49 97 2 91 -7 106 -72 118 -38 7 -39 7 -35
-21z"/>
<path d="M380 690 l0 -30 90 0 c50 0 90 -2 90 -5 0 -3 -45 -73 -100 -155 -72
-107 -100 -158 -100 -180 l0 -30 145 0 145 0 0 35 0 35 -100 0 -100 0 100 150
c72 107 100 158 100 180 l0 30 -135 0 -135 0 0 -30z"/>
</g>
</svg>
